<mxfile host="app.diagrams.net" modified="2022-10-27T04:23:03.942Z" agent="5.0 (Macintosh; Intel Mac OS X 10_15_7) AppleWebKit/537.36 (KHTML, like Gecko) Chrome/106.0.0.0 Safari/537.36" etag="I1xjgIB2lsby_t3p5NHb" version="14.9.7" type="github">
  <diagram id="C5RBs43oDa-KdzZeNtuy" name="Page-1">
    <mxGraphModel dx="1213" dy="711" grid="1" gridSize="10" guides="1" tooltips="1" connect="1" arrows="1" fold="1" page="1" pageScale="1" pageWidth="827" pageHeight="1169" math="0" shadow="0">
      <root>
        <mxCell id="WIyWlLk6GJQsqaUBKTNV-0" />
        <mxCell id="WIyWlLk6GJQsqaUBKTNV-1" parent="WIyWlLk6GJQsqaUBKTNV-0" />
        <mxCell id="dzCtffNmc-GPnVu4bETe-4" style="edgeStyle=orthogonalEdgeStyle;rounded=0;orthogonalLoop=1;jettySize=auto;html=1;entryX=0.5;entryY=0;entryDx=0;entryDy=0;" edge="1" parent="WIyWlLk6GJQsqaUBKTNV-1" source="WIyWlLk6GJQsqaUBKTNV-6" target="dzCtffNmc-GPnVu4bETe-11">
          <mxGeometry relative="1" as="geometry">
            <mxPoint x="130" y="320" as="targetPoint" />
          </mxGeometry>
        </mxCell>
        <mxCell id="dzCtffNmc-GPnVu4bETe-10" value="docx" style="edgeLabel;html=1;align=center;verticalAlign=middle;resizable=0;points=[];" vertex="1" connectable="0" parent="dzCtffNmc-GPnVu4bETe-4">
          <mxGeometry x="0.4414" y="-2" relative="1" as="geometry">
            <mxPoint x="2" y="-12" as="offset" />
          </mxGeometry>
        </mxCell>
        <mxCell id="dzCtffNmc-GPnVu4bETe-5" style="edgeStyle=orthogonalEdgeStyle;rounded=0;orthogonalLoop=1;jettySize=auto;html=1;entryX=0.5;entryY=0;entryDx=0;entryDy=0;" edge="1" parent="WIyWlLk6GJQsqaUBKTNV-1" source="WIyWlLk6GJQsqaUBKTNV-6" target="dzCtffNmc-GPnVu4bETe-12">
          <mxGeometry relative="1" as="geometry">
            <mxPoint x="255" y="320" as="targetPoint" />
          </mxGeometry>
        </mxCell>
        <mxCell id="dzCtffNmc-GPnVu4bETe-8" value="pdf" style="edgeLabel;html=1;align=center;verticalAlign=middle;resizable=0;points=[];" vertex="1" connectable="0" parent="dzCtffNmc-GPnVu4bETe-5">
          <mxGeometry x="-0.237" y="-1" relative="1" as="geometry">
            <mxPoint x="1" y="-1" as="offset" />
          </mxGeometry>
        </mxCell>
        <mxCell id="dzCtffNmc-GPnVu4bETe-6" style="edgeStyle=orthogonalEdgeStyle;rounded=0;orthogonalLoop=1;jettySize=auto;html=1;entryX=1;entryY=0.5;entryDx=0;entryDy=0;" edge="1" parent="WIyWlLk6GJQsqaUBKTNV-1" source="WIyWlLk6GJQsqaUBKTNV-6" target="dzCtffNmc-GPnVu4bETe-14">
          <mxGeometry relative="1" as="geometry">
            <mxPoint x="380" y="320" as="targetPoint" />
            <Array as="points">
              <mxPoint x="400" y="195" />
              <mxPoint x="400" y="410" />
            </Array>
          </mxGeometry>
        </mxCell>
        <mxCell id="dzCtffNmc-GPnVu4bETe-9" value="image" style="edgeLabel;html=1;align=center;verticalAlign=middle;resizable=0;points=[];" vertex="1" connectable="0" parent="dzCtffNmc-GPnVu4bETe-6">
          <mxGeometry x="0.4739" y="-1" relative="1" as="geometry">
            <mxPoint y="-168" as="offset" />
          </mxGeometry>
        </mxCell>
        <mxCell id="WIyWlLk6GJQsqaUBKTNV-6" value="&lt;span&gt;合同文件格式？&lt;/span&gt;" style="rhombus;whiteSpace=wrap;html=1;shadow=0;fontFamily=Helvetica;fontSize=12;align=center;strokeWidth=1;spacing=6;spacingTop=-4;" parent="WIyWlLk6GJQsqaUBKTNV-1" vertex="1">
          <mxGeometry x="190" y="160" width="130" height="50" as="geometry" />
        </mxCell>
        <mxCell id="dzCtffNmc-GPnVu4bETe-29" style="edgeStyle=orthogonalEdgeStyle;rounded=0;orthogonalLoop=1;jettySize=auto;html=1;entryX=0.5;entryY=0;entryDx=0;entryDy=0;" edge="1" parent="WIyWlLk6GJQsqaUBKTNV-1" source="dzCtffNmc-GPnVu4bETe-0" target="WIyWlLk6GJQsqaUBKTNV-6">
          <mxGeometry relative="1" as="geometry" />
        </mxCell>
        <mxCell id="dzCtffNmc-GPnVu4bETe-0" value="输入合同文件" style="rounded=1;whiteSpace=wrap;html=1;fontSize=12;glass=0;strokeWidth=1;shadow=0;" vertex="1" parent="WIyWlLk6GJQsqaUBKTNV-1">
          <mxGeometry x="195" y="110" width="120" height="30" as="geometry" />
        </mxCell>
        <mxCell id="dzCtffNmc-GPnVu4bETe-13" style="edgeStyle=orthogonalEdgeStyle;rounded=0;orthogonalLoop=1;jettySize=auto;html=1;exitX=0.5;exitY=1;exitDx=0;exitDy=0;entryX=0;entryY=0.5;entryDx=0;entryDy=0;" edge="1" parent="WIyWlLk6GJQsqaUBKTNV-1" source="dzCtffNmc-GPnVu4bETe-11" target="dzCtffNmc-GPnVu4bETe-12">
          <mxGeometry relative="1" as="geometry" />
        </mxCell>
        <mxCell id="dzCtffNmc-GPnVu4bETe-11" value="Libreoffice：docx2pdf" style="rounded=0;whiteSpace=wrap;html=1;" vertex="1" parent="WIyWlLk6GJQsqaUBKTNV-1">
          <mxGeometry x="67.5" y="220" width="120" height="60" as="geometry" />
        </mxCell>
        <mxCell id="dzCtffNmc-GPnVu4bETe-15" style="edgeStyle=orthogonalEdgeStyle;rounded=0;orthogonalLoop=1;jettySize=auto;html=1;entryX=0.5;entryY=0;entryDx=0;entryDy=0;" edge="1" parent="WIyWlLk6GJQsqaUBKTNV-1" source="dzCtffNmc-GPnVu4bETe-12" target="dzCtffNmc-GPnVu4bETe-14">
          <mxGeometry relative="1" as="geometry" />
        </mxCell>
        <mxCell id="dzCtffNmc-GPnVu4bETe-12" value="puMuPDF：pdf2images" style="rounded=0;whiteSpace=wrap;html=1;" vertex="1" parent="WIyWlLk6GJQsqaUBKTNV-1">
          <mxGeometry x="187.5" y="290" width="135" height="60" as="geometry" />
        </mxCell>
        <mxCell id="dzCtffNmc-GPnVu4bETe-18" style="edgeStyle=orthogonalEdgeStyle;rounded=0;orthogonalLoop=1;jettySize=auto;html=1;exitX=0.5;exitY=1;exitDx=0;exitDy=0;entryX=0.5;entryY=0;entryDx=0;entryDy=0;" edge="1" parent="WIyWlLk6GJQsqaUBKTNV-1" source="dzCtffNmc-GPnVu4bETe-14" target="dzCtffNmc-GPnVu4bETe-17">
          <mxGeometry relative="1" as="geometry" />
        </mxCell>
        <mxCell id="dzCtffNmc-GPnVu4bETe-36" style="edgeStyle=orthogonalEdgeStyle;rounded=0;orthogonalLoop=1;jettySize=auto;html=1;exitX=0;exitY=0.5;exitDx=0;exitDy=0;entryX=0;entryY=0.5;entryDx=0;entryDy=0;" edge="1" parent="WIyWlLk6GJQsqaUBKTNV-1" source="dzCtffNmc-GPnVu4bETe-14" target="dzCtffNmc-GPnVu4bETe-31">
          <mxGeometry relative="1" as="geometry">
            <Array as="points">
              <mxPoint x="100" y="410" />
              <mxPoint x="100" y="760" />
            </Array>
          </mxGeometry>
        </mxCell>
        <mxCell id="dzCtffNmc-GPnVu4bETe-37" value="不忽略页眉页脚" style="edgeLabel;html=1;align=center;verticalAlign=middle;resizable=0;points=[];" vertex="1" connectable="0" parent="dzCtffNmc-GPnVu4bETe-36">
          <mxGeometry x="0.2802" y="-3" relative="1" as="geometry">
            <mxPoint x="3" y="-166" as="offset" />
          </mxGeometry>
        </mxCell>
        <mxCell id="dzCtffNmc-GPnVu4bETe-14" value="images2base64" style="rounded=0;whiteSpace=wrap;html=1;" vertex="1" parent="WIyWlLk6GJQsqaUBKTNV-1">
          <mxGeometry x="195" y="380" width="120" height="60" as="geometry" />
        </mxCell>
        <mxCell id="dzCtffNmc-GPnVu4bETe-19" value="是" style="edgeStyle=orthogonalEdgeStyle;rounded=0;orthogonalLoop=1;jettySize=auto;html=1;exitX=1;exitY=0.5;exitDx=0;exitDy=0;entryX=0.5;entryY=0;entryDx=0;entryDy=0;" edge="1" parent="WIyWlLk6GJQsqaUBKTNV-1" source="dzCtffNmc-GPnVu4bETe-17" target="dzCtffNmc-GPnVu4bETe-21">
          <mxGeometry relative="1" as="geometry">
            <mxPoint x="400" y="510" as="targetPoint" />
            <Array as="points">
              <mxPoint x="430" y="495" />
            </Array>
          </mxGeometry>
        </mxCell>
        <mxCell id="dzCtffNmc-GPnVu4bETe-20" value="否" style="edgeStyle=orthogonalEdgeStyle;rounded=0;orthogonalLoop=1;jettySize=auto;html=1;exitX=0.5;exitY=1;exitDx=0;exitDy=0;entryX=0.5;entryY=0;entryDx=0;entryDy=0;" edge="1" parent="WIyWlLk6GJQsqaUBKTNV-1" source="dzCtffNmc-GPnVu4bETe-17" target="dzCtffNmc-GPnVu4bETe-22">
          <mxGeometry relative="1" as="geometry">
            <mxPoint x="255" y="600" as="targetPoint" />
          </mxGeometry>
        </mxCell>
        <mxCell id="dzCtffNmc-GPnVu4bETe-17" value="忽略页眉页脚？" style="rhombus;whiteSpace=wrap;html=1;" vertex="1" parent="WIyWlLk6GJQsqaUBKTNV-1">
          <mxGeometry x="187.5" y="470" width="142.5" height="50" as="geometry" />
        </mxCell>
        <mxCell id="dzCtffNmc-GPnVu4bETe-27" style="edgeStyle=orthogonalEdgeStyle;rounded=0;orthogonalLoop=1;jettySize=auto;html=1;exitX=0.5;exitY=1;exitDx=0;exitDy=0;entryX=0.5;entryY=0;entryDx=0;entryDy=0;" edge="1" parent="WIyWlLk6GJQsqaUBKTNV-1" source="dzCtffNmc-GPnVu4bETe-21" target="dzCtffNmc-GPnVu4bETe-26">
          <mxGeometry relative="1" as="geometry" />
        </mxCell>
        <mxCell id="dzCtffNmc-GPnVu4bETe-21" value="layout模型" style="rounded=0;whiteSpace=wrap;html=1;" vertex="1" parent="WIyWlLk6GJQsqaUBKTNV-1">
          <mxGeometry x="370" y="510" width="120" height="30" as="geometry" />
        </mxCell>
        <mxCell id="dzCtffNmc-GPnVu4bETe-30" style="edgeStyle=orthogonalEdgeStyle;rounded=0;orthogonalLoop=1;jettySize=auto;html=1;" edge="1" parent="WIyWlLk6GJQsqaUBKTNV-1" source="dzCtffNmc-GPnVu4bETe-22">
          <mxGeometry relative="1" as="geometry">
            <mxPoint x="258.75" y="740" as="targetPoint" />
          </mxGeometry>
        </mxCell>
        <mxCell id="dzCtffNmc-GPnVu4bETe-22" value="OCR模型" style="rounded=0;whiteSpace=wrap;html=1;" vertex="1" parent="WIyWlLk6GJQsqaUBKTNV-1">
          <mxGeometry x="198.75" y="660" width="120" height="30" as="geometry" />
        </mxCell>
        <mxCell id="dzCtffNmc-GPnVu4bETe-25" style="edgeStyle=orthogonalEdgeStyle;rounded=0;orthogonalLoop=1;jettySize=auto;html=1;exitX=0.5;exitY=1;exitDx=0;exitDy=0;entryX=1;entryY=0.5;entryDx=0;entryDy=0;" edge="1" parent="WIyWlLk6GJQsqaUBKTNV-1" source="dzCtffNmc-GPnVu4bETe-23" target="dzCtffNmc-GPnVu4bETe-22">
          <mxGeometry relative="1" as="geometry">
            <Array as="points">
              <mxPoint x="430" y="675" />
            </Array>
          </mxGeometry>
        </mxCell>
        <mxCell id="dzCtffNmc-GPnVu4bETe-34" style="edgeStyle=orthogonalEdgeStyle;rounded=0;orthogonalLoop=1;jettySize=auto;html=1;entryX=1;entryY=0.5;entryDx=0;entryDy=0;" edge="1" parent="WIyWlLk6GJQsqaUBKTNV-1" source="dzCtffNmc-GPnVu4bETe-23" target="dzCtffNmc-GPnVu4bETe-31">
          <mxGeometry relative="1" as="geometry">
            <Array as="points">
              <mxPoint x="540" y="625" />
              <mxPoint x="540" y="760" />
            </Array>
          </mxGeometry>
        </mxCell>
        <mxCell id="dzCtffNmc-GPnVu4bETe-35" value="忽略页眉页脚" style="edgeLabel;html=1;align=center;verticalAlign=middle;resizable=0;points=[];" vertex="1" connectable="0" parent="dzCtffNmc-GPnVu4bETe-34">
          <mxGeometry x="-0.5111" y="1" relative="1" as="geometry">
            <mxPoint as="offset" />
          </mxGeometry>
        </mxCell>
        <mxCell id="dzCtffNmc-GPnVu4bETe-23" value="&lt;span&gt;images2base64&lt;/span&gt;" style="rounded=0;whiteSpace=wrap;html=1;" vertex="1" parent="WIyWlLk6GJQsqaUBKTNV-1">
          <mxGeometry x="370" y="610" width="120" height="30" as="geometry" />
        </mxCell>
        <mxCell id="dzCtffNmc-GPnVu4bETe-28" style="edgeStyle=orthogonalEdgeStyle;rounded=0;orthogonalLoop=1;jettySize=auto;html=1;exitX=0.5;exitY=1;exitDx=0;exitDy=0;entryX=0.5;entryY=0;entryDx=0;entryDy=0;" edge="1" parent="WIyWlLk6GJQsqaUBKTNV-1" source="dzCtffNmc-GPnVu4bETe-26" target="dzCtffNmc-GPnVu4bETe-23">
          <mxGeometry relative="1" as="geometry" />
        </mxCell>
        <mxCell id="dzCtffNmc-GPnVu4bETe-26" value="mask页眉页脚" style="rounded=0;whiteSpace=wrap;html=1;" vertex="1" parent="WIyWlLk6GJQsqaUBKTNV-1">
          <mxGeometry x="370" y="560" width="120" height="30" as="geometry" />
        </mxCell>
        <mxCell id="dzCtffNmc-GPnVu4bETe-31" value="OCR_results&lt;br&gt;images_base64" style="rounded=1;whiteSpace=wrap;html=1;align=left;" vertex="1" parent="WIyWlLk6GJQsqaUBKTNV-1">
          <mxGeometry x="195" y="740" width="125" height="40" as="geometry" />
        </mxCell>
      </root>
    </mxGraphModel>
  </diagram>
</mxfile>
